<?xml version="1.0" encoding="UTF-8"?>
<svg width="16px" height="16px" viewBox="0 0 16 16" version="1.1" xmlns="http://www.w3.org/2000/svg" xmlns:xlink="http://www.w3.org/1999/xlink">
    <title>切片</title>
    <g id="定稿" stroke="none" stroke-width="1" fill="none" fill-rule="evenodd">
        <g id="设施服务icon" transform="translate(-306.000000, -171.000000)">
            <g id="1.Base基础/2.Icon图标/权限管理/16*16" transform="translate(306.000000, 171.000000)">
                <g id="20*20备份-25" opacity="0" transform="translate(0.000000, 0.000000)">
                    <g id="24*24" transform="translate(8.000000, 8.000000) rotate(-180.000000) translate(-8.000000, -8.000000) translate(-0.000000, 0.000000)">
                        <line x1="6.13636571" y1="1.04541714" x2="6.66916571" y2="3.03193143" id="Stroke-33" stroke="#F1F1F1" stroke-width="0.5"></line>
                        <line x1="4.4" y1="1.76459429" x2="5.42857143" y2="3.54608" id="Stroke-34" stroke="#F1F1F1" stroke-width="0.5"></line>
                        <line x1="1.76459429" y1="4.4" x2="3.54608" y2="5.42857143" id="Stroke-35" stroke="#F1F1F1" stroke-width="0.5"></line>
                        <line x1="1.04541714" y1="6.13636571" x2="3.03193143" y2="6.66916571" id="Stroke-36" stroke="#F1F1F1" stroke-width="0.5"></line>
                        <line x1="1.04541714" y1="9.86363429" x2="3.03193143" y2="9.33083429" id="Stroke-37" stroke="#F1F1F1" stroke-width="0.5"></line>
                        <line x1="1.76459429" y1="11.6" x2="3.54608" y2="10.5714286" id="Stroke-38" stroke="#F1F1F1" stroke-width="0.5"></line>
                        <line x1="4.4" y1="14.2354057" x2="5.42857143" y2="12.45392" id="Stroke-39" stroke="#F1F1F1" stroke-width="0.5"></line>
                        <line x1="6.13636571" y1="14.9545829" x2="6.66916571" y2="12.9680686" id="Stroke-40" stroke="#F1F1F1" stroke-width="0.5"></line>
                        <line x1="9.86363429" y1="14.9545829" x2="9.33083429" y2="12.9680686" id="Stroke-41" stroke="#F1F1F1" stroke-width="0.5"></line>
                        <line x1="11.6" y1="14.2354057" x2="10.5714286" y2="12.45392" id="Stroke-42" stroke="#F1F1F1" stroke-width="0.5"></line>
                        <line x1="14.2354057" y1="11.6" x2="12.45392" y2="10.5714286" id="Stroke-43" stroke="#F1F1F1" stroke-width="0.5"></line>
                        <line x1="14.9545829" y1="9.86363429" x2="12.9680686" y2="9.33083429" id="Stroke-44" stroke="#F1F1F1" stroke-width="0.5"></line>
                        <line x1="14.9545829" y1="6.13636571" x2="12.9680686" y2="6.66916571" id="Stroke-45" stroke="#F1F1F1" stroke-width="0.5"></line>
                        <line x1="14.2354057" y1="4.4" x2="12.45392" y2="5.42857143" id="Stroke-46" stroke="#F1F1F1" stroke-width="0.5"></line>
                        <line x1="11.6" y1="1.76459429" x2="10.5714286" y2="3.54608" id="Stroke-47" stroke="#F1F1F1" stroke-width="0.5"></line>
                        <line x1="9.86363429" y1="1.04541714" x2="9.33083429" y2="3.03193143" id="Stroke-48" stroke="#F1F1F1" stroke-width="0.5"></line>
                        <line x1="8" y1="0.8" x2="8" y2="3.2" id="Stroke-49" stroke="#3FA8F4" stroke-width="0.5"></line>
                        <line x1="0.8" y1="0.8" x2="4.57142857" y2="4.57142857" id="Stroke-50" stroke="#3FA8F4" stroke-width="0.5"></line>
                        <line x1="0.8" y1="8" x2="3.2" y2="8" id="Stroke-51" stroke="#3FA8F4" stroke-width="0.5"></line>
                        <line x1="0.8" y1="15.2" x2="4.57142857" y2="11.4285714" id="Stroke-52" stroke="#3FA8F4" stroke-width="0.5"></line>
                        <line x1="8" y1="15.2" x2="8" y2="12.8" id="Stroke-53" stroke="#3FA8F4" stroke-width="0.5"></line>
                        <line x1="15.2" y1="15.2" x2="11.4285714" y2="11.4285714" id="Stroke-54" stroke="#3FA8F4" stroke-width="0.5"></line>
                        <line x1="15.2" y1="8" x2="12.8" y2="8" id="Stroke-55" stroke="#3FA8F4" stroke-width="0.5"></line>
                        <line x1="15.2" y1="0.8" x2="11.4285714" y2="4.57142857" id="Stroke-56" stroke="#3FA8F4" stroke-width="0.5"></line>
                        <path d="M0,16 L16,16 L16,0 L0,0 L0,16 Z M0.8,15.2 L15.2,15.2 L15.2,0.8 L0.8,0.8 L0.8,15.2 Z" id="Fill-57" fill="#F1F1F1"></path>
                        <path d="M8,0.8 C4.02354286,0.8 0.8,4.02354286 0.8,8 C0.8,11.9764571 4.02354286,15.2 8,15.2 C11.9764571,15.2 15.2,11.9764571 15.2,8 C15.2,4.02354286 11.9764571,0.8 8,0.8 M8,0.868571429 C11.9318857,0.868571429 15.1314286,4.06811429 15.1314286,8 C15.1314286,11.9318857 11.9318857,15.1314286 8,15.1314286 C4.06811429,15.1314286 0.868571429,11.9318857 0.868571429,8 C0.868571429,4.06811429 4.06811429,0.868571429 8,0.868571429" id="Fill-58" fill="#3FA8F4"></path>
                        <path d="M3.2,15.2 L12.8,15.2 L12.8,0.8 L3.2,0.8 L3.2,15.2 Z M3.264,15.1314286 L12.736,15.1314286 L12.736,0.868571429 L3.264,0.868571429 L3.264,15.1314286 Z" id="Fill-59" fill="#3FA8F4"></path>
                        <path d="M2,14 L14,14 L14,2 L2,2 L2,14 Z M2.06666667,13.9333333 L13.9333333,13.9333333 L13.9333333,2.06666667 L2.06666667,2.06666667 L2.06666667,13.9333333 Z" id="Fill-60" fill="#3FA8F4"></path>
                        <path d="M0.8,12.8 L15.2,12.8 L15.2,3.2 L0.8,3.2 L0.8,12.8 Z M0.868571429,12.736 L15.1314286,12.736 L15.1314286,3.264 L0.868571429,3.264 L0.868571429,12.736 Z" id="Fill-61" fill="#3FA8F4"></path>
                        <path d="M0,16 L16,16 L16,0 L0,0 L0,16 Z M0.0666666667,15.9333333 L15.9333333,15.9333333 L15.9333333,0.0666666667 L0.0666666667,0.0666666667 L0.0666666667,15.9333333 Z" id="Fill-62" fill="#3FA8F4"></path>
                    </g>
                </g>
                <rect id="矩形" x="0" y="0" width="16" height="16"></rect>
                <g id="编组" transform="translate(1.250000, 0.466789)">
                    <path d="M5.87348959,0.271576394 C6.40168015,-0.0849232853 7.091887,-0.0909050912 7.6261771,0.256386402 L7.6261771,0.256386402 L8.80839375,1.02483371 C9.60904446,1.54526106 10.5243008,1.86306114 11.4751878,1.95081182 L11.4751878,1.95081182 L12.0588729,2.00467603 C12.8753536,2.0800233 13.5,2.76496808 13.5,3.58491803 L13.5,3.58491803 L13.5,7.88545265 C13.5,10.2531434 12.1978849,12.4289814 10.1113043,13.5479726 L10.1113043,13.5479726 L7.5,14.9483575 C7.03155866,15.1995782 6.46844134,15.1995782 6,14.9483575 L6,14.9483575 L3.38869567,13.5479726 C1.3021151,12.4289814 0,10.2531434 0,7.88545265 L0,7.88545265 L0,3.58813669 C0,2.76622184 0.62755282,2.08031722 1.44622967,2.00743211 L1.44622967,2.00743211 L2.08385022,1.95066608 C3.06755888,1.86308854 4.01295973,1.52733207 4.83155098,0.974827847 L4.83155098,0.974827847 Z M7.08118552,1.09482792 C6.88357137,0.96637764 6.62828939,0.968590089 6.43293123,1.10044613 L6.43293123,1.10044613 L5.39099262,1.80369759 C4.43215187,2.45086254 3.32477519,2.84414427 2.17252742,2.9467265 L2.17252742,2.9467265 L1.53490686,3.00349253 C1.23210858,3.03045004 1,3.28414079 1,3.58813669 L1,3.58813669 L1,7.88545265 C1,9.88465369 2.09946361,11.7218605 3.86130433,12.6667002 L3.86130433,12.6667002 L6.47259927,14.0670851 C6.64586187,14.1600024 6.85413813,14.1600024 7.02740073,14.0670851 L7.02740073,14.0670851 L9.63869567,12.6667002 C11.4005364,11.7218605 12.5,9.88465369 12.5,7.88545265 L12.5,7.88545265 L12.5,3.58491803 C12.5,3.28164887 12.2689664,3.02831313 11.9669804,3.00044496 L11.9669804,3.00044496 L11.3832953,2.94658075 C10.2708488,2.84392088 9.20008666,2.47212528 8.26340217,1.86327523 L8.26340217,1.86327523 Z M6.75,3.533211 C8.13071187,3.533211 9.25,4.65249913 9.25,6.033211 C9.25,7.24289276 8.39083211,8.2519051 7.24942595,8.4833184 L7.249,9.047 L8.25,9.04703934 C8.52614237,9.04703934 8.75,9.27089696 8.75,9.54703934 C8.75,9.79249923 8.57312484,9.99664771 8.33987563,10.0389837 L8.25,10.0470393 L7.25,10.047 L7.25,11.0470393 C7.25,11.3231817 7.02614237,11.5470393 6.75,11.5470393 C6.50454011,11.5470393 6.30039163,11.3701642 6.25805567,11.136915 L6.25,11.0470393 L6.24956551,8.48311371 C5.10866183,8.25131068 4.25,7.24253645 4.25,6.033211 C4.25,4.65249913 5.36928813,3.533211 6.75,3.533211 Z M6.75,4.533211 C5.92157288,4.533211 5.25,5.20478388 5.25,6.033211 C5.25,6.86163813 5.92157288,7.533211 6.75,7.533211 C7.57842712,7.533211 8.25,6.86163813 8.25,6.033211 C8.25,5.20478388 7.57842712,4.533211 6.75,4.533211 Z" id="形状结合" fill="currentColor" fill-rule="nonzero"></path>
                    <g id="编组-30" transform="translate(4.250000, 3.533211)"></g>
                </g>
            </g>
        </g>
    </g>
</svg>
