<?xml version="1.0" encoding="UTF-8"?>
<svg width="16px" height="16px" viewBox="0 0 16 16" version="1.1" xmlns="http://www.w3.org/2000/svg" xmlns:xlink="http://www.w3.org/1999/xlink">
    <title>编组 5备份 7</title>
    <g id="定稿" stroke="none" stroke-width="1" fill="none" fill-rule="evenodd">
        <g id="设施服务icon" transform="translate(-260.000000, -313.000000)">
            <g id="编组-5备份-7" transform="translate(260.000000, 313.000000)">
                <rect id="矩形" x="0" y="0" width="16" height="16"></rect>
                <g id="编组-4" transform="translate(2.000000, 1.500000)" stroke="#171717">
                    <path d="M0,1 L0,10 C2.02906125e-16,11.6568542 1.34314575,13 3,13 L11,13 C11.5522847,13 12,12.5522847 12,12 L12,3 C12,1.34314575 10.6568542,-3.04359188e-16 9,0 L1,0 C0.44771525,1.01453063e-16 -6.76353751e-17,0.44771525 0,1 Z" id="路径-5"></path>
                    <g id="编组-3" transform="translate(6.000000, 6.500000) scale(-1, 1) rotate(180.000000) translate(-6.000000, -6.500000) translate(3.000000, 3.250000)" stroke-linecap="round">
                        <g id="编组-22">
                            <line x1="-7.02216063e-15" y1="6" x2="6" y2="6" id="路径-2"></line>
                            <line x1="1.42733048e-14" y1="3.25" x2="6" y2="3.25" id="路径-2备份-3"></line>
                            <line x1="0" y1="0.5" x2="4" y2="0.5" id="路径-2备份-4"></line>
                        </g>
                    </g>
                </g>
            </g>
        </g>
    </g>
</svg>