<?xml version="1.0" encoding="UTF-8"?>
<svg width="16px" height="16px" viewBox="0 0 16 16" version="1.1" xmlns="http://www.w3.org/2000/svg" xmlns:xlink="http://www.w3.org/1999/xlink">
    <title>切片</title>
    <g id="定稿" stroke="none" stroke-width="1" fill="none" fill-rule="evenodd">
        <g id="设施服务icon" transform="translate(-30.000000, -100.000000)">
            <g id="编组-35" transform="translate(30.000000, 100.000000)">
                <g id="20*20备份-25" opacity="0" transform="translate(0.000000, 0.000000)">
                    <g id="24*24" transform="translate(8.000000, 8.000000) rotate(-180.000000) translate(-8.000000, -8.000000) translate(-0.000000, 0.000000)">
                        <line x1="6.13636571" y1="1.04541714" x2="6.66916571" y2="3.03193143" id="Stroke-33" stroke="#F1F1F1" stroke-width="0.5"></line>
                        <line x1="4.4" y1="1.76459429" x2="5.42857143" y2="3.54608" id="Stroke-34" stroke="#F1F1F1" stroke-width="0.5"></line>
                        <line x1="1.76459429" y1="4.4" x2="3.54608" y2="5.42857143" id="Stroke-35" stroke="#F1F1F1" stroke-width="0.5"></line>
                        <line x1="1.04541714" y1="6.13636571" x2="3.03193143" y2="6.66916571" id="Stroke-36" stroke="#F1F1F1" stroke-width="0.5"></line>
                        <line x1="1.04541714" y1="9.86363429" x2="3.03193143" y2="9.33083429" id="Stroke-37" stroke="#F1F1F1" stroke-width="0.5"></line>
                        <line x1="1.76459429" y1="11.6" x2="3.54608" y2="10.5714286" id="Stroke-38" stroke="#F1F1F1" stroke-width="0.5"></line>
                        <line x1="4.4" y1="14.2354057" x2="5.42857143" y2="12.45392" id="Stroke-39" stroke="#F1F1F1" stroke-width="0.5"></line>
                        <line x1="6.13636571" y1="14.9545829" x2="6.66916571" y2="12.9680686" id="Stroke-40" stroke="#F1F1F1" stroke-width="0.5"></line>
                        <line x1="9.86363429" y1="14.9545829" x2="9.33083429" y2="12.9680686" id="Stroke-41" stroke="#F1F1F1" stroke-width="0.5"></line>
                        <line x1="11.6" y1="14.2354057" x2="10.5714286" y2="12.45392" id="Stroke-42" stroke="#F1F1F1" stroke-width="0.5"></line>
                        <line x1="14.2354057" y1="11.6" x2="12.45392" y2="10.5714286" id="Stroke-43" stroke="#F1F1F1" stroke-width="0.5"></line>
                        <line x1="14.9545829" y1="9.86363429" x2="12.9680686" y2="9.33083429" id="Stroke-44" stroke="#F1F1F1" stroke-width="0.5"></line>
                        <line x1="14.9545829" y1="6.13636571" x2="12.9680686" y2="6.66916571" id="Stroke-45" stroke="#F1F1F1" stroke-width="0.5"></line>
                        <line x1="14.2354057" y1="4.4" x2="12.45392" y2="5.42857143" id="Stroke-46" stroke="#F1F1F1" stroke-width="0.5"></line>
                        <line x1="11.6" y1="1.76459429" x2="10.5714286" y2="3.54608" id="Stroke-47" stroke="#F1F1F1" stroke-width="0.5"></line>
                        <line x1="9.86363429" y1="1.04541714" x2="9.33083429" y2="3.03193143" id="Stroke-48" stroke="#F1F1F1" stroke-width="0.5"></line>
                        <line x1="8" y1="0.8" x2="8" y2="3.2" id="Stroke-49" stroke="#3FA8F4" stroke-width="0.5"></line>
                        <line x1="0.8" y1="0.8" x2="4.57142857" y2="4.57142857" id="Stroke-50" stroke="#3FA8F4" stroke-width="0.5"></line>
                        <line x1="0.8" y1="8" x2="3.2" y2="8" id="Stroke-51" stroke="#3FA8F4" stroke-width="0.5"></line>
                        <line x1="0.8" y1="15.2" x2="4.57142857" y2="11.4285714" id="Stroke-52" stroke="#3FA8F4" stroke-width="0.5"></line>
                        <line x1="8" y1="15.2" x2="8" y2="12.8" id="Stroke-53" stroke="#3FA8F4" stroke-width="0.5"></line>
                        <line x1="15.2" y1="15.2" x2="11.4285714" y2="11.4285714" id="Stroke-54" stroke="#3FA8F4" stroke-width="0.5"></line>
                        <line x1="15.2" y1="8" x2="12.8" y2="8" id="Stroke-55" stroke="#3FA8F4" stroke-width="0.5"></line>
                        <line x1="15.2" y1="0.8" x2="11.4285714" y2="4.57142857" id="Stroke-56" stroke="#3FA8F4" stroke-width="0.5"></line>
                        <path d="M0,16 L16,16 L16,0 L0,0 L0,16 Z M0.8,15.2 L15.2,15.2 L15.2,0.8 L0.8,0.8 L0.8,15.2 Z" id="Fill-57" fill="#F1F1F1"></path>
                        <path d="M8,0.8 C4.02354286,0.8 0.8,4.02354286 0.8,8 C0.8,11.9764571 4.02354286,15.2 8,15.2 C11.9764571,15.2 15.2,11.9764571 15.2,8 C15.2,4.02354286 11.9764571,0.8 8,0.8 M8,0.868571429 C11.9318857,0.868571429 15.1314286,4.06811429 15.1314286,8 C15.1314286,11.9318857 11.9318857,15.1314286 8,15.1314286 C4.06811429,15.1314286 0.868571429,11.9318857 0.868571429,8 C0.868571429,4.06811429 4.06811429,0.868571429 8,0.868571429" id="Fill-58" fill="#3FA8F4"></path>
                        <path d="M3.2,15.2 L12.8,15.2 L12.8,0.8 L3.2,0.8 L3.2,15.2 Z M3.264,15.1314286 L12.736,15.1314286 L12.736,0.868571429 L3.264,0.868571429 L3.264,15.1314286 Z" id="Fill-59" fill="#3FA8F4"></path>
                        <path d="M2,14 L14,14 L14,2 L2,2 L2,14 Z M2.06666667,13.9333333 L13.9333333,13.9333333 L13.9333333,2.06666667 L2.06666667,2.06666667 L2.06666667,13.9333333 Z" id="Fill-60" fill="#3FA8F4"></path>
                        <path d="M0.8,12.8 L15.2,12.8 L15.2,3.2 L0.8,3.2 L0.8,12.8 Z M0.868571429,12.736 L15.1314286,12.736 L15.1314286,3.264 L0.868571429,3.264 L0.868571429,12.736 Z" id="Fill-61" fill="#3FA8F4"></path>
                        <path d="M0,16 L16,16 L16,0 L0,0 L0,16 Z M0.0666666667,15.9333333 L15.9333333,15.9333333 L15.9333333,0.0666666667 L0.0666666667,0.0666666667 L0.0666666667,15.9333333 Z" id="Fill-62" fill="#3FA8F4"></path>
                    </g>
                </g>
                <rect id="矩形" x="0" y="0" width="16" height="16"></rect>
                <path d="M1.75,5.5 L1.75,13.5 C1.75,14.0522847 2.19771525,14.5 2.75,14.5 L13.25,14.5 C13.8022847,14.5 14.25,14.0522847 14.25,13.5 L14.25,5.5 C14.25,4.94771525 13.8022847,4.5 13.25,4.5 L2.75,4.5 C2.19771525,4.5 1.75,4.94771525 1.75,5.5 Z" id="路径-28" stroke="#171717"></path>
                <path d="M11,4.6558076 C11,3.93720507 11,3.21860253 11,2.5 C11,1.94771525 10.5522847,1.5 10,1.5 L8,1.5 L8,1.5 L6,1.5 C5.44771525,1.5 5,1.94771525 5,2.5 C5,3.18716581 5,3.87433161 5,4.56149742" id="路径" stroke="#171717"></path>
                <g id="编组" transform="translate(6.256000, 6.250000)" fill="#171717" fill-rule="nonzero" stroke="#171717" stroke-width="0.4">
                    <path d="M1.816,0 C1.24,0 0.792,0.176 0.472,0.528 C0.24930665,0.761828018 0.107975713,1.04989764 0.0426146694,1.39220888 C0.0367722667,1.42280692 0.0304283002,1.47608696 0.02358277,1.55204898 C0.00903231155,1.71354509 0.128152475,1.85626138 0.289648291,1.87081502 C0.298410005,1.87160461 0.30720278,1.872 0.316,1.872 C0.492308589,1.872 0.640341027,1.73925951 0.659479841,1.56399279 C0.667627209,1.48941842 0.675156304,1.43784571 0.682067126,1.40927468 C0.725334608,1.23039626 0.796645566,1.0784511 0.896,0.952 C1.088,0.688 1.384,0.56 1.784,0.56 C2.12,0.56 2.384,0.648 2.568,0.84 C2.744,1.016 2.84,1.264 2.84,1.584 C2.84,1.808 2.76,2.016 2.6,2.216 C2.552,2.28 2.456,2.376 2.328,2.504 C1.896,2.888 1.632,3.192 1.52,3.432 C1.424,3.632 1.376,3.79556806 1.376,4.05956806 C1.376,4.19898237 1.48901763,4.312 1.62843194,4.312 L1.76356806,4.312 C1.90298237,4.312 2.016,4.19898237 2.016,4.05956806 L2.016,4.05956806 L2.016,4.05956806 C2.016,3.84356806 2.064,3.72 2.168,3.544 C2.248,3.4 2.368,3.256 2.544,3.104 C2.896,2.792 3.112,2.584 3.192,2.488 C3.392,2.224 3.496,1.912 3.496,1.552 C3.496,1.072 3.344,0.696 3.048,0.424 C2.736,0.136 2.328,0 1.816,0 Z" id="路径"></path>
                    <path d="M1.696,5.274 C1.56,5.274 1.448,5.314 1.352,5.41 C1.256,5.498 1.216,5.61 1.216,5.746 C1.216,5.882 1.256,5.994 1.352,6.09 C1.448,6.178 1.56,6.226 1.696,6.226 C1.832,6.226 1.944,6.178 2.04,6.09 C2.136,6.002 2.184,5.89 2.184,5.746 C2.184,5.61 2.136,5.498 2.048,5.41 C1.952,5.314 1.832,5.274 1.696,5.274 Z" id="路径"></path>
                </g>
            </g>
        </g>
    </g>
</svg>