<?xml version="1.0" encoding="UTF-8"?>
<svg width="16px" height="16px" viewBox="0 0 16 16" version="1.1" xmlns="http://www.w3.org/2000/svg" xmlns:xlink="http://www.w3.org/1999/xlink">
    <title>切片</title>
    <g id="定稿" stroke="none" stroke-width="1" fill="none" fill-rule="evenodd">
        <g id="设施服务icon" transform="translate(-30.000000, -100.000000)">
            <g id="1.Base基础/2.Icon图标/遗失物品/16*16" transform="translate(30.000000, 100.000000)">
                <g id="20*20备份-25" opacity="0" transform="translate(0.000000, 0.000000)">
                    <g id="24*24" transform="translate(8.000000, 8.000000) rotate(-180.000000) translate(-8.000000, -8.000000) translate(-0.000000, 0.000000)">
                        <line x1="6.13636571" y1="1.04541714" x2="6.66916571" y2="3.03193143" id="Stroke-33" stroke="#F1F1F1" stroke-width="0.5"></line>
                        <line x1="4.4" y1="1.76459429" x2="5.42857143" y2="3.54608" id="Stroke-34" stroke="#F1F1F1" stroke-width="0.5"></line>
                        <line x1="1.76459429" y1="4.4" x2="3.54608" y2="5.42857143" id="Stroke-35" stroke="#F1F1F1" stroke-width="0.5"></line>
                        <line x1="1.04541714" y1="6.13636571" x2="3.03193143" y2="6.66916571" id="Stroke-36" stroke="#F1F1F1" stroke-width="0.5"></line>
                        <line x1="1.04541714" y1="9.86363429" x2="3.03193143" y2="9.33083429" id="Stroke-37" stroke="#F1F1F1" stroke-width="0.5"></line>
                        <line x1="1.76459429" y1="11.6" x2="3.54608" y2="10.5714286" id="Stroke-38" stroke="#F1F1F1" stroke-width="0.5"></line>
                        <line x1="4.4" y1="14.2354057" x2="5.42857143" y2="12.45392" id="Stroke-39" stroke="#F1F1F1" stroke-width="0.5"></line>
                        <line x1="6.13636571" y1="14.9545829" x2="6.66916571" y2="12.9680686" id="Stroke-40" stroke="#F1F1F1" stroke-width="0.5"></line>
                        <line x1="9.86363429" y1="14.9545829" x2="9.33083429" y2="12.9680686" id="Stroke-41" stroke="#F1F1F1" stroke-width="0.5"></line>
                        <line x1="11.6" y1="14.2354057" x2="10.5714286" y2="12.45392" id="Stroke-42" stroke="#F1F1F1" stroke-width="0.5"></line>
                        <line x1="14.2354057" y1="11.6" x2="12.45392" y2="10.5714286" id="Stroke-43" stroke="#F1F1F1" stroke-width="0.5"></line>
                        <line x1="14.9545829" y1="9.86363429" x2="12.9680686" y2="9.33083429" id="Stroke-44" stroke="#F1F1F1" stroke-width="0.5"></line>
                        <line x1="14.9545829" y1="6.13636571" x2="12.9680686" y2="6.66916571" id="Stroke-45" stroke="#F1F1F1" stroke-width="0.5"></line>
                        <line x1="14.2354057" y1="4.4" x2="12.45392" y2="5.42857143" id="Stroke-46" stroke="#F1F1F1" stroke-width="0.5"></line>
                        <line x1="11.6" y1="1.76459429" x2="10.5714286" y2="3.54608" id="Stroke-47" stroke="#F1F1F1" stroke-width="0.5"></line>
                        <line x1="9.86363429" y1="1.04541714" x2="9.33083429" y2="3.03193143" id="Stroke-48" stroke="#F1F1F1" stroke-width="0.5"></line>
                        <line x1="8" y1="0.8" x2="8" y2="3.2" id="Stroke-49" stroke="#3FA8F4" stroke-width="0.5"></line>
                        <line x1="0.8" y1="0.8" x2="4.57142857" y2="4.57142857" id="Stroke-50" stroke="#3FA8F4" stroke-width="0.5"></line>
                        <line x1="0.8" y1="8" x2="3.2" y2="8" id="Stroke-51" stroke="#3FA8F4" stroke-width="0.5"></line>
                        <line x1="0.8" y1="15.2" x2="4.57142857" y2="11.4285714" id="Stroke-52" stroke="#3FA8F4" stroke-width="0.5"></line>
                        <line x1="8" y1="15.2" x2="8" y2="12.8" id="Stroke-53" stroke="#3FA8F4" stroke-width="0.5"></line>
                        <line x1="15.2" y1="15.2" x2="11.4285714" y2="11.4285714" id="Stroke-54" stroke="#3FA8F4" stroke-width="0.5"></line>
                        <line x1="15.2" y1="8" x2="12.8" y2="8" id="Stroke-55" stroke="#3FA8F4" stroke-width="0.5"></line>
                        <line x1="15.2" y1="0.8" x2="11.4285714" y2="4.57142857" id="Stroke-56" stroke="#3FA8F4" stroke-width="0.5"></line>
                        <path d="M0,16 L16,16 L16,0 L0,0 L0,16 Z M0.8,15.2 L15.2,15.2 L15.2,0.8 L0.8,0.8 L0.8,15.2 Z" id="Fill-57" fill="#F1F1F1"></path>
                        <path d="M8,0.8 C4.02354286,0.8 0.8,4.02354286 0.8,8 C0.8,11.9764571 4.02354286,15.2 8,15.2 C11.9764571,15.2 15.2,11.9764571 15.2,8 C15.2,4.02354286 11.9764571,0.8 8,0.8 M8,0.868571429 C11.9318857,0.868571429 15.1314286,4.06811429 15.1314286,8 C15.1314286,11.9318857 11.9318857,15.1314286 8,15.1314286 C4.06811429,15.1314286 0.868571429,11.9318857 0.868571429,8 C0.868571429,4.06811429 4.06811429,0.868571429 8,0.868571429" id="Fill-58" fill="#3FA8F4"></path>
                        <path d="M3.2,15.2 L12.8,15.2 L12.8,0.8 L3.2,0.8 L3.2,15.2 Z M3.264,15.1314286 L12.736,15.1314286 L12.736,0.868571429 L3.264,0.868571429 L3.264,15.1314286 Z" id="Fill-59" fill="#3FA8F4"></path>
                        <path d="M2,14 L14,14 L14,2 L2,2 L2,14 Z M2.06666667,13.9333333 L13.9333333,13.9333333 L13.9333333,2.06666667 L2.06666667,2.06666667 L2.06666667,13.9333333 Z" id="Fill-60" fill="#3FA8F4"></path>
                        <path d="M0.8,12.8 L15.2,12.8 L15.2,3.2 L0.8,3.2 L0.8,12.8 Z M0.868571429,12.736 L15.1314286,12.736 L15.1314286,3.264 L0.868571429,3.264 L0.868571429,12.736 Z" id="Fill-61" fill="#3FA8F4"></path>
                        <path d="M0,16 L16,16 L16,0 L0,0 L0,16 Z M0.0666666667,15.9333333 L15.9333333,15.9333333 L15.9333333,0.0666666667 L0.0666666667,0.0666666667 L0.0666666667,15.9333333 Z" id="Fill-62" fill="#3FA8F4"></path>
                    </g>
                </g>
                <rect id="矩形" x="0" y="0" width="16" height="16"></rect>
                <path d="M10,1 C10.7796961,1 11.4204487,1.59488808 11.4931334,2.35553999 L11.5,2.5 L11.5,4 L13.25,4 C14.0296961,4 14.6704487,4.59488808 14.7431334,5.35553999 L14.75,5.5 L14.75,13.5 C14.75,14.3284271 14.0784271,15 13.25,15 L13.25,15 L2.75,15 C1.92157288,15 1.25,14.3284271 1.25,13.5 L1.25,13.5 L1.25,5.5 C1.25,4.67157288 1.92157288,4 2.75,4 L2.75,4 L4.5,4 L4.5,2.5 C4.5,1.72030388 5.09488808,1.07955132 5.85553999,1.00686658 L6,1 L10,1 Z M13.25,5 L2.75,5 C2.47385763,5 2.25,5.22385763 2.25,5.5 L2.25,5.5 L2.25,13.5 C2.25,13.7761424 2.47385763,14 2.75,14 L2.75,14 L13.25,14 C13.5261424,14 13.75,13.7761424 13.75,13.5 L13.75,13.5 L13.75,5.5 C13.75,5.22385763 13.5261424,5 13.25,5 L13.25,5 Z M7.952,11.324 C8.14507624,11.324 8.31373089,11.3868882 8.44542136,11.5185786 C8.57277883,11.6459361 8.64,11.8096051 8.64,11.996 C8.64,12.1939509 8.57003698,12.3601131 8.43114493,12.4874308 C8.29616221,12.611165 8.13548413,12.676 7.952,12.676 C7.76851587,12.676 7.60783779,12.611165 7.46657864,12.4814214 C7.33439178,12.3492345 7.272,12.1875831 7.272,11.996 C7.272,11.8014644 7.33632885,11.6377182 7.46657864,11.5185786 C7.5987655,11.3863918 7.76041695,11.324 7.952,11.324 Z M8.072,6.05 C8.63640953,6.05 9.0910396,6.20523954 9.43932506,6.5267345 C9.78008257,6.83986302 9.952,7.27080271 9.952,7.802 C9.952,8.20198464 9.83586445,8.55722279 9.60164426,8.86603688 L9.60164426,8.86603688 L9.50645084,8.9696625 L9.3614361,9.11218801 L8.82333874,9.60441512 C8.7244988,9.70240522 8.65066632,9.79778939 8.59618531,9.89574586 C8.49939196,10.05955 8.472,10.1470859 8.47068631,10.3324536 L8.47068631,10.3324536 L8.46004647,10.4131288 C8.41240057,10.6162201 8.23075955,10.762 8.01956806,10.762 L8.01956806,10.762 L7.88443194,10.762 C7.63456068,10.762 7.432,10.5594393 7.432,10.3095681 C7.432,10.031679 7.4787282,9.83913543 7.59476337,9.59742291 C7.72135942,9.32614565 8.00152406,9.0041654 8.44257864,8.61257864 L8.44257864,8.61257864 L8.57510636,8.47899179 L8.67976531,8.36630475 L8.77146671,8.24113392 C8.85584612,8.10795659 8.896,7.97446055 8.896,7.834 C8.896,7.57000757 8.82218483,7.37102754 8.67960236,7.22838107 C8.54044673,7.08317519 8.3320565,7.01 8.04,7.01 C7.69800006,7.01 7.46428474,7.11264524 7.30926367,7.32556431 C7.22803777,7.42894272 7.16910017,7.55482084 7.13246125,7.70629513 L7.13246125,7.70629513 L7.11429798,7.83570337 C7.08408089,8.1124211 6.85036305,8.322 6.56301552,8.3217981 L6.56301552,8.3217981 L6.52769748,8.32000781 C6.256192,8.29554034 6.05592752,8.05560795 6.08038998,7.78409817 C6.08285747,7.75671746 6.08527541,7.731972 6.08767729,7.70970902 L6.08767729,7.70970902 L6.10216374,7.60469846 C6.17496874,7.22340144 6.3346364,6.90103178 6.58001199,6.64346544 C6.94015759,6.24730527 7.4423892,6.05 8.072,6.05 Z M10,2 L6,2 C5.75454011,2 5.55039163,2.17687516 5.50805567,2.41012437 L5.5,2.5 L5.5,4 L10.5,4 L10.5,2.5 C10.5,2.25454011 10.3231248,2.05039163 10.0898756,2.00805567 L10,2 Z" id="形状结合" fill="currentColor" fill-rule="nonzero"></path>
            </g>
        </g>
    </g>
</svg>
