<?xml version="1.0" encoding="UTF-8"?>
<svg width="16px" height="16px" viewBox="0 0 16 16" version="1.1" xmlns="http://www.w3.org/2000/svg" xmlns:xlink="http://www.w3.org/1999/xlink">
    <title>切片</title>
    <g id="定稿" stroke="none" stroke-width="1" fill="none" fill-rule="evenodd">
        <g id="设施服务icon" transform="translate(-30.000000, -370.000000)">
            <g id="1.Base基础/2.Icon图标/收起/16*16备份" transform="translate(30.000000, 370.000000)">
                <rect id="矩形" x="0" y="0" width="16" height="16"></rect>
                <path d="M14,8.29818238 L14,12.6890794 C14,13.1309072 13.6418278,13.4890794 13.2,13.4890794 C13.0332616,13.4890794 12.87069,13.4369809 12.7350094,13.3400662 L9.6613815,11.1446177 C9.30185143,10.8878105 9.21857808,10.3881704 9.47538528,10.0286403 C9.526697,9.95680392 9.58954508,9.89395584 9.6613815,9.84264411 L12.7350094,7.64719559 C13.0945395,7.39038839 13.5941796,7.47366174 13.8509868,7.83319182 C13.9479015,7.96887242 14,8.13144399 14,8.29818238 Z" id="矩形备份-14" fill="currentColor"></path>
                <path d="M13.5,2.5 C13.7761424,2.5 14,2.72385763 14,3 C14,3.24545989 13.8231248,3.44960837 13.5898756,3.49194433 L13.5,3.5 L2.5,3.5 C2.22385763,3.5 2,3.27614237 2,3 C2,2.75454011 2.17687516,2.55039163 2.41012437,2.50805567 L2.5,2.5 L13.5,2.5 Z M7.5,7.5 C7.77614237,7.5 8,7.72385763 8,8 C8,8.24545989 7.82312484,8.44960837 7.58987563,8.49194433 L7.5,8.5 L2.5,8.5 C2.22385763,8.5 2,8.27614237 2,8 C2,7.75454011 2.17687516,7.55039163 2.41012437,7.50805567 L2.5,7.5 L7.5,7.5 Z M7.5,12.5 C7.77614237,12.5 8,12.7238576 8,13 C8,13.2454599 7.82312484,13.4496084 7.58987563,13.4919443 L7.5,13.5 L2.5,13.5 C2.22385763,13.5 2,13.2761424 2,13 C2,12.7545401 2.17687516,12.5503916 2.41012437,12.5080557 L2.5,12.5 L7.5,12.5 Z" id="形状结合" fill="currentColor" fill-rule="nonzero"></path>
            </g>
        </g>
    </g>
</svg>
