<?xml version="1.0" encoding="UTF-8"?>
<svg width="16px" height="16px" viewBox="0 0 16 16" version="1.1" xmlns="http://www.w3.org/2000/svg" xmlns:xlink="http://www.w3.org/1999/xlink">
    <title>切片</title>
    <g id="定稿" stroke="none" stroke-width="1" fill="none" fill-rule="evenodd">
        <g id="设施服务icon" transform="translate(-214.000000, -313.000000)">
            <g id="1.Base基础/2.Icon图标/报表重建/16*16" transform="translate(214.000000, 313.000000)">
                <g id="20*20备份-25" opacity="0" transform="translate(0.000000, 0.000000)">
                    <g id="24*24" transform="translate(8.000000, 8.000000) rotate(-180.000000) translate(-8.000000, -8.000000) translate(-0.000000, 0.000000)">
                        <line x1="6.13636571" y1="1.04541714" x2="6.66916571" y2="3.03193143" id="Stroke-33" stroke="#F1F1F1" stroke-width="0.5"></line>
                        <line x1="4.4" y1="1.76459429" x2="5.42857143" y2="3.54608" id="Stroke-34" stroke="#F1F1F1" stroke-width="0.5"></line>
                        <line x1="1.76459429" y1="4.4" x2="3.54608" y2="5.42857143" id="Stroke-35" stroke="#F1F1F1" stroke-width="0.5"></line>
                        <line x1="1.04541714" y1="6.13636571" x2="3.03193143" y2="6.66916571" id="Stroke-36" stroke="#F1F1F1" stroke-width="0.5"></line>
                        <line x1="1.04541714" y1="9.86363429" x2="3.03193143" y2="9.33083429" id="Stroke-37" stroke="#F1F1F1" stroke-width="0.5"></line>
                        <line x1="1.76459429" y1="11.6" x2="3.54608" y2="10.5714286" id="Stroke-38" stroke="#F1F1F1" stroke-width="0.5"></line>
                        <line x1="4.4" y1="14.2354057" x2="5.42857143" y2="12.45392" id="Stroke-39" stroke="#F1F1F1" stroke-width="0.5"></line>
                        <line x1="6.13636571" y1="14.9545829" x2="6.66916571" y2="12.9680686" id="Stroke-40" stroke="#F1F1F1" stroke-width="0.5"></line>
                        <line x1="9.86363429" y1="14.9545829" x2="9.33083429" y2="12.9680686" id="Stroke-41" stroke="#F1F1F1" stroke-width="0.5"></line>
                        <line x1="11.6" y1="14.2354057" x2="10.5714286" y2="12.45392" id="Stroke-42" stroke="#F1F1F1" stroke-width="0.5"></line>
                        <line x1="14.2354057" y1="11.6" x2="12.45392" y2="10.5714286" id="Stroke-43" stroke="#F1F1F1" stroke-width="0.5"></line>
                        <line x1="14.9545829" y1="9.86363429" x2="12.9680686" y2="9.33083429" id="Stroke-44" stroke="#F1F1F1" stroke-width="0.5"></line>
                        <line x1="14.9545829" y1="6.13636571" x2="12.9680686" y2="6.66916571" id="Stroke-45" stroke="#F1F1F1" stroke-width="0.5"></line>
                        <line x1="14.2354057" y1="4.4" x2="12.45392" y2="5.42857143" id="Stroke-46" stroke="#F1F1F1" stroke-width="0.5"></line>
                        <line x1="11.6" y1="1.76459429" x2="10.5714286" y2="3.54608" id="Stroke-47" stroke="#F1F1F1" stroke-width="0.5"></line>
                        <line x1="9.86363429" y1="1.04541714" x2="9.33083429" y2="3.03193143" id="Stroke-48" stroke="#F1F1F1" stroke-width="0.5"></line>
                        <line x1="8" y1="0.8" x2="8" y2="3.2" id="Stroke-49" stroke="#3FA8F4" stroke-width="0.5"></line>
                        <line x1="0.8" y1="0.8" x2="4.57142857" y2="4.57142857" id="Stroke-50" stroke="#3FA8F4" stroke-width="0.5"></line>
                        <line x1="0.8" y1="8" x2="3.2" y2="8" id="Stroke-51" stroke="#3FA8F4" stroke-width="0.5"></line>
                        <line x1="0.8" y1="15.2" x2="4.57142857" y2="11.4285714" id="Stroke-52" stroke="#3FA8F4" stroke-width="0.5"></line>
                        <line x1="8" y1="15.2" x2="8" y2="12.8" id="Stroke-53" stroke="#3FA8F4" stroke-width="0.5"></line>
                        <line x1="15.2" y1="15.2" x2="11.4285714" y2="11.4285714" id="Stroke-54" stroke="#3FA8F4" stroke-width="0.5"></line>
                        <line x1="15.2" y1="8" x2="12.8" y2="8" id="Stroke-55" stroke="#3FA8F4" stroke-width="0.5"></line>
                        <line x1="15.2" y1="0.8" x2="11.4285714" y2="4.57142857" id="Stroke-56" stroke="#3FA8F4" stroke-width="0.5"></line>
                        <path d="M0,16 L16,16 L16,0 L0,0 L0,16 Z M0.8,15.2 L15.2,15.2 L15.2,0.8 L0.8,0.8 L0.8,15.2 Z" id="Fill-57" fill="#F1F1F1"></path>
                        <path d="M8,0.8 C4.02354286,0.8 0.8,4.02354286 0.8,8 C0.8,11.9764571 4.02354286,15.2 8,15.2 C11.9764571,15.2 15.2,11.9764571 15.2,8 C15.2,4.02354286 11.9764571,0.8 8,0.8 M8,0.868571429 C11.9318857,0.868571429 15.1314286,4.06811429 15.1314286,8 C15.1314286,11.9318857 11.9318857,15.1314286 8,15.1314286 C4.06811429,15.1314286 0.868571429,11.9318857 0.868571429,8 C0.868571429,4.06811429 4.06811429,0.868571429 8,0.868571429" id="Fill-58" fill="#3FA8F4"></path>
                        <path d="M3.2,15.2 L12.8,15.2 L12.8,0.8 L3.2,0.8 L3.2,15.2 Z M3.264,15.1314286 L12.736,15.1314286 L12.736,0.868571429 L3.264,0.868571429 L3.264,15.1314286 Z" id="Fill-59" fill="#3FA8F4"></path>
                        <path d="M2,14 L14,14 L14,2 L2,2 L2,14 Z M2.06666667,13.9333333 L13.9333333,13.9333333 L13.9333333,2.06666667 L2.06666667,2.06666667 L2.06666667,13.9333333 Z" id="Fill-60" fill="#3FA8F4"></path>
                        <path d="M0.8,12.8 L15.2,12.8 L15.2,3.2 L0.8,3.2 L0.8,12.8 Z M0.868571429,12.736 L15.1314286,12.736 L15.1314286,3.264 L0.868571429,3.264 L0.868571429,12.736 Z" id="Fill-61" fill="#3FA8F4"></path>
                        <path d="M0,16 L16,16 L16,0 L0,0 L0,16 Z M0.0666666667,15.9333333 L15.9333333,15.9333333 L15.9333333,0.0666666667 L0.0666666667,0.0666666667 L0.0666666667,15.9333333 Z" id="Fill-62" fill="#3FA8F4"></path>
                    </g>
                </g>
                <rect id="矩形" x="0" y="0" width="16" height="16"></rect>
                <g id="编组-39">
                    <rect id="矩形" x="0" y="0" width="16" height="16"></rect>
                    <g id="编组-38" transform="translate(1.500000, 1.500000)">
                        <path d="M11.5,6.5 L11.5,3 C11.5,1.34314575 10.1568542,0 8.5,0 L1,0 C0.44771525,0 0,0.44771525 0,1 L0,10 C0,11.6568542 1.34314575,13 3,13 L6.78433426,13 L10,13" id="路径" stroke="#171717"></path>
                        <line x1="2.5" y1="3.75" x2="8" y2="3.75" id="路径-2" stroke-opacity="0.9" stroke="#000000" stroke-linecap="round" transform="translate(5.250000, 3.750000) scale(-1, 1) rotate(180.000000) translate(-5.250000, -3.750000) "></line>
                        <line x1="2.5" y1="6.5" x2="5.5" y2="6.5" id="路径-2备份-3" stroke-opacity="0.9" stroke="#000000" stroke-linecap="round" transform="translate(4.000000, 6.500000) scale(-1, 1) rotate(180.000000) translate(-4.000000, -6.500000) "></line>
                        <line x1="2.5" y1="9.25" x2="4.5" y2="9.25" id="路径-2备份-4" stroke-opacity="0.9" stroke="#000000" stroke-linecap="round" transform="translate(3.500000, 9.250000) scale(-1, 1) rotate(180.000000) translate(-3.500000, -9.250000) "></line>
                        <path d="M10,13 C11.9329966,13 13.5,11.4329966 13.5,9.5 C13.5,7.56700338 11.9329966,6 10,6 C8.06700338,6 6.5,7.56700338 6.5,9.5 C6.5,11.4329966 8.06700338,13 10,13 Z" id="椭圆形" stroke="#171717"></path>
                        <path d="M8.5,10.5 L10.5,10.5 C11.0522847,10.5 11.5,10.0522847 11.5,9.5 C11.5,8.94771525 11.0522847,8.5 10.5,8.5 L9.27235142,8.5 L9.27235142,8.5" id="路径-31" stroke="#171717" stroke-linecap="round"></path>
                        <path d="M8.87842231,7.9070392 L9.587148,9.0410003 C9.6749611,9.18150126 9.63224915,9.36658639 9.49174819,9.45439949 C9.44406871,9.48419917 9.38897442,9.5 9.3327485,9.5 L7.91529713,9.5 C7.7496117,9.5 7.61529712,9.36568542 7.61529712,9.19999999 C7.61529712,9.14377407 7.63109795,9.08867978 7.66089763,9.0410003 L8.36962331,7.9070392 C8.45743642,7.76653824 8.64252154,7.72382629 8.7830225,7.81163939 C8.82165324,7.8357836 8.8542781,7.86840846 8.87842231,7.9070392 Z" id="三角形" fill="#171717" transform="translate(8.624023, 8.500000) rotate(-90.000000) translate(-8.624023, -8.500000) "></path>
                    </g>
                </g>
                <g id="编组-11" transform="translate(8.000000, 7.500000)"></g>
            </g>
        </g>
    </g>
</svg>