<?xml version="1.0" encoding="UTF-8"?>
<svg width="16px" height="16px" viewBox="0 0 16 16" version="1.1" xmlns="http://www.w3.org/2000/svg" xmlns:xlink="http://www.w3.org/1999/xlink">
    <title>切片</title>
    <g id="定稿" stroke="none" stroke-width="1" fill="none" fill-rule="evenodd">
        <g id="设施服务icon" transform="translate(-214.000000, -313.000000)">
            <g id="1.Base基础/2.Icon图标/报表重建/16*16" transform="translate(214.000000, 313.000000)">
                <g id="20*20备份-25" opacity="0" transform="translate(0.000000, 0.000000)">
                    <g id="24*24" transform="translate(8.000000, 8.000000) rotate(-180.000000) translate(-8.000000, -8.000000) translate(-0.000000, 0.000000)">
                        <line x1="6.13636571" y1="1.04541714" x2="6.66916571" y2="3.03193143" id="Stroke-33" stroke="#F1F1F1" stroke-width="0.5"></line>
                        <line x1="4.4" y1="1.76459429" x2="5.42857143" y2="3.54608" id="Stroke-34" stroke="#F1F1F1" stroke-width="0.5"></line>
                        <line x1="1.76459429" y1="4.4" x2="3.54608" y2="5.42857143" id="Stroke-35" stroke="#F1F1F1" stroke-width="0.5"></line>
                        <line x1="1.04541714" y1="6.13636571" x2="3.03193143" y2="6.66916571" id="Stroke-36" stroke="#F1F1F1" stroke-width="0.5"></line>
                        <line x1="1.04541714" y1="9.86363429" x2="3.03193143" y2="9.33083429" id="Stroke-37" stroke="#F1F1F1" stroke-width="0.5"></line>
                        <line x1="1.76459429" y1="11.6" x2="3.54608" y2="10.5714286" id="Stroke-38" stroke="#F1F1F1" stroke-width="0.5"></line>
                        <line x1="4.4" y1="14.2354057" x2="5.42857143" y2="12.45392" id="Stroke-39" stroke="#F1F1F1" stroke-width="0.5"></line>
                        <line x1="6.13636571" y1="14.9545829" x2="6.66916571" y2="12.9680686" id="Stroke-40" stroke="#F1F1F1" stroke-width="0.5"></line>
                        <line x1="9.86363429" y1="14.9545829" x2="9.33083429" y2="12.9680686" id="Stroke-41" stroke="#F1F1F1" stroke-width="0.5"></line>
                        <line x1="11.6" y1="14.2354057" x2="10.5714286" y2="12.45392" id="Stroke-42" stroke="#F1F1F1" stroke-width="0.5"></line>
                        <line x1="14.2354057" y1="11.6" x2="12.45392" y2="10.5714286" id="Stroke-43" stroke="#F1F1F1" stroke-width="0.5"></line>
                        <line x1="14.9545829" y1="9.86363429" x2="12.9680686" y2="9.33083429" id="Stroke-44" stroke="#F1F1F1" stroke-width="0.5"></line>
                        <line x1="14.9545829" y1="6.13636571" x2="12.9680686" y2="6.66916571" id="Stroke-45" stroke="#F1F1F1" stroke-width="0.5"></line>
                        <line x1="14.2354057" y1="4.4" x2="12.45392" y2="5.42857143" id="Stroke-46" stroke="#F1F1F1" stroke-width="0.5"></line>
                        <line x1="11.6" y1="1.76459429" x2="10.5714286" y2="3.54608" id="Stroke-47" stroke="#F1F1F1" stroke-width="0.5"></line>
                        <line x1="9.86363429" y1="1.04541714" x2="9.33083429" y2="3.03193143" id="Stroke-48" stroke="#F1F1F1" stroke-width="0.5"></line>
                        <line x1="8" y1="0.8" x2="8" y2="3.2" id="Stroke-49" stroke="#3FA8F4" stroke-width="0.5"></line>
                        <line x1="0.8" y1="0.8" x2="4.57142857" y2="4.57142857" id="Stroke-50" stroke="#3FA8F4" stroke-width="0.5"></line>
                        <line x1="0.8" y1="8" x2="3.2" y2="8" id="Stroke-51" stroke="#3FA8F4" stroke-width="0.5"></line>
                        <line x1="0.8" y1="15.2" x2="4.57142857" y2="11.4285714" id="Stroke-52" stroke="#3FA8F4" stroke-width="0.5"></line>
                        <line x1="8" y1="15.2" x2="8" y2="12.8" id="Stroke-53" stroke="#3FA8F4" stroke-width="0.5"></line>
                        <line x1="15.2" y1="15.2" x2="11.4285714" y2="11.4285714" id="Stroke-54" stroke="#3FA8F4" stroke-width="0.5"></line>
                        <line x1="15.2" y1="8" x2="12.8" y2="8" id="Stroke-55" stroke="#3FA8F4" stroke-width="0.5"></line>
                        <line x1="15.2" y1="0.8" x2="11.4285714" y2="4.57142857" id="Stroke-56" stroke="#3FA8F4" stroke-width="0.5"></line>
                        <path d="M0,16 L16,16 L16,0 L0,0 L0,16 Z M0.8,15.2 L15.2,15.2 L15.2,0.8 L0.8,0.8 L0.8,15.2 Z" id="Fill-57" fill="#F1F1F1"></path>
                        <path d="M8,0.8 C4.02354286,0.8 0.8,4.02354286 0.8,8 C0.8,11.9764571 4.02354286,15.2 8,15.2 C11.9764571,15.2 15.2,11.9764571 15.2,8 C15.2,4.02354286 11.9764571,0.8 8,0.8 M8,0.868571429 C11.9318857,0.868571429 15.1314286,4.06811429 15.1314286,8 C15.1314286,11.9318857 11.9318857,15.1314286 8,15.1314286 C4.06811429,15.1314286 0.868571429,11.9318857 0.868571429,8 C0.868571429,4.06811429 4.06811429,0.868571429 8,0.868571429" id="Fill-58" fill="#3FA8F4"></path>
                        <path d="M3.2,15.2 L12.8,15.2 L12.8,0.8 L3.2,0.8 L3.2,15.2 Z M3.264,15.1314286 L12.736,15.1314286 L12.736,0.868571429 L3.264,0.868571429 L3.264,15.1314286 Z" id="Fill-59" fill="#3FA8F4"></path>
                        <path d="M2,14 L14,14 L14,2 L2,2 L2,14 Z M2.06666667,13.9333333 L13.9333333,13.9333333 L13.9333333,2.06666667 L2.06666667,2.06666667 L2.06666667,13.9333333 Z" id="Fill-60" fill="#3FA8F4"></path>
                        <path d="M0.8,12.8 L15.2,12.8 L15.2,3.2 L0.8,3.2 L0.8,12.8 Z M0.868571429,12.736 L15.1314286,12.736 L15.1314286,3.264 L0.868571429,3.264 L0.868571429,12.736 Z" id="Fill-61" fill="#3FA8F4"></path>
                        <path d="M0,16 L16,16 L16,0 L0,0 L0,16 Z M0.0666666667,15.9333333 L15.9333333,15.9333333 L15.9333333,0.0666666667 L0.0666666667,0.0666666667 L0.0666666667,15.9333333 Z" id="Fill-62" fill="#3FA8F4"></path>
                    </g>
                </g>
                <rect id="矩形" x="0" y="0" width="16" height="16"></rect>
                <path d="M10,1 C11.8685634,1 13.3951264,2.4642776 13.4948211,4.3079648 L13.5,4.5 L13.5011092,7.53577067 C14.6961002,8.22754725 15.5,9.5198932 15.5,11 C15.5,13.209139 13.709139,15 11.5,15 L11.5,15 L4.5,15 C2.6314366,15 1.10487355,13.5357224 1.00517886,11.6920352 L1,11.5 L1,2.5 C1,1.72030388 1.59488808,1.07955132 2.35553999,1.00686658 L2.5,1 L10,1 Z M10,2 L2.5,2 C2.25454011,2 2.05039163,2.17687516 2.00805567,2.41012437 L2,2.5 L2,11.5 C2,12.8254834 3.03153594,13.9100387 4.33562431,13.9946823 L4.5,14 L8.85525927,14.0009561 C8.02421057,13.2679883 7.5,12.1952121 7.5,11 C7.5,8.790861 9.290861,7 11.5,7 C11.8455738,7 12.1809122,7.04382251 12.5007613,7.12621352 L12.5,4.5 C12.5,3.1745166 11.4684641,2.08996133 10.1643757,2.00531768 L10,2 Z M11.5,8 C9.84314575,8 8.5,9.34314575 8.5,11 C8.5,12.6568542 9.84314575,14 11.5,14 C13.1568542,14 14.5,12.6568542 14.5,11 C14.5,9.34314575 13.1568542,8 11.5,8 Z M11.1240228,10.7087257 C11.1240228,10.8744111 10.9897082,11.0087257 10.8240228,11.0087257 C10.7677969,11.0087257 10.7127026,10.9929249 10.6650231,10.9631252 L9.53106202,10.2543995 C9.39056105,10.1665864 9.3478491,9.98150128 9.4356622,9.84100031 C9.45980642,9.80236957 9.49243127,9.76974471 9.53106202,9.7456005 L10.6650231,9.03687481 C10.8055241,8.94906171 10.9906092,8.99177366 11.0784223,9.13227463 C11.108222,9.17995411 11.1240228,9.2350484 11.1240228,9.29127431 L11.124,9.5 L12,9.5 C12.8284271,9.5 13.5,10.1715729 13.5,11 C13.5,11.7796961 12.9051119,12.4204487 12.14446,12.4931334 L12,12.5 L10,12.5 C9.72385763,12.5 9.5,12.2761424 9.5,12 C9.5,11.7545401 9.67687516,11.5503916 9.91012437,11.5080557 L10,11.5 L12,11.5 C12.2761424,11.5 12.5,11.2761424 12.5,11 C12.5,10.7545401 12.3231248,10.5503916 12.0898756,10.5080557 L12,10.5 L11.124,10.5 L11.1240228,10.7087257 Z M6,10.25 L6.08987563,10.2580557 C6.32312484,10.3003916 6.5,10.5045401 6.5,10.75 C6.5,11.0261424 6.27614237,11.25 6,11.25 L6,11.25 L4,11.25 L3.91012437,11.2419443 C3.67687516,11.1996084 3.5,10.9954599 3.5,10.75 C3.5,10.4738576 3.72385763,10.25 4,10.25 L4,10.25 L6,10.25 Z M7,7.5 L7.08987563,7.50805567 C7.32312484,7.55039163 7.5,7.75454011 7.5,8 C7.5,8.27614237 7.27614237,8.5 7,8.5 L7,8.5 L4,8.5 L3.91012437,8.49194433 C3.67687516,8.44960837 3.5,8.24545989 3.5,8 C3.5,7.72385763 3.72385763,7.5 4,7.5 L4,7.5 L7,7.5 Z M9.5,4.75 L9.58987563,4.75805567 C9.82312484,4.80039163 10,5.00454011 10,5.25 C10,5.52614237 9.77614237,5.75 9.5,5.75 L9.5,5.75 L4,5.75 L3.91012437,5.74194433 C3.67687516,5.69960837 3.5,5.49545989 3.5,5.25 C3.5,4.97385763 3.72385763,4.75 4,4.75 L4,4.75 L9.5,4.75 Z" id="形状结合" fill="currentColor" fill-rule="nonzero"></path>
            </g>
        </g>
    </g>
</svg>
