<?xml version="1.0" encoding="UTF-8"?>
<svg width="16px" height="16px" viewBox="0 0 16 16" version="1.1" xmlns="http://www.w3.org/2000/svg" xmlns:xlink="http://www.w3.org/1999/xlink">
    <title>切片</title>
    <g id="定稿" stroke="none" stroke-width="1" fill="none" fill-rule="evenodd">
        <g id="设施服务icon" transform="translate(-168.000000, -100.000000)">
            <g id="1.Base基础/2.Icon图标/签名管理/16*16" transform="translate(168.000000, 100.000000)">
                <g id="20*20备份-25" opacity="0" transform="translate(0.000000, 0.000000)">
                    <g id="24*24" transform="translate(8.000000, 8.000000) rotate(-180.000000) translate(-8.000000, -8.000000) translate(-0.000000, 0.000000)">
                        <line x1="6.13636571" y1="1.04541714" x2="6.66916571" y2="3.03193143" id="Stroke-33" stroke="#F1F1F1" stroke-width="0.5"></line>
                        <line x1="4.4" y1="1.76459429" x2="5.42857143" y2="3.54608" id="Stroke-34" stroke="#F1F1F1" stroke-width="0.5"></line>
                        <line x1="1.76459429" y1="4.4" x2="3.54608" y2="5.42857143" id="Stroke-35" stroke="#F1F1F1" stroke-width="0.5"></line>
                        <line x1="1.04541714" y1="6.13636571" x2="3.03193143" y2="6.66916571" id="Stroke-36" stroke="#F1F1F1" stroke-width="0.5"></line>
                        <line x1="1.04541714" y1="9.86363429" x2="3.03193143" y2="9.33083429" id="Stroke-37" stroke="#F1F1F1" stroke-width="0.5"></line>
                        <line x1="1.76459429" y1="11.6" x2="3.54608" y2="10.5714286" id="Stroke-38" stroke="#F1F1F1" stroke-width="0.5"></line>
                        <line x1="4.4" y1="14.2354057" x2="5.42857143" y2="12.45392" id="Stroke-39" stroke="#F1F1F1" stroke-width="0.5"></line>
                        <line x1="6.13636571" y1="14.9545829" x2="6.66916571" y2="12.9680686" id="Stroke-40" stroke="#F1F1F1" stroke-width="0.5"></line>
                        <line x1="9.86363429" y1="14.9545829" x2="9.33083429" y2="12.9680686" id="Stroke-41" stroke="#F1F1F1" stroke-width="0.5"></line>
                        <line x1="11.6" y1="14.2354057" x2="10.5714286" y2="12.45392" id="Stroke-42" stroke="#F1F1F1" stroke-width="0.5"></line>
                        <line x1="14.2354057" y1="11.6" x2="12.45392" y2="10.5714286" id="Stroke-43" stroke="#F1F1F1" stroke-width="0.5"></line>
                        <line x1="14.9545829" y1="9.86363429" x2="12.9680686" y2="9.33083429" id="Stroke-44" stroke="#F1F1F1" stroke-width="0.5"></line>
                        <line x1="14.9545829" y1="6.13636571" x2="12.9680686" y2="6.66916571" id="Stroke-45" stroke="#F1F1F1" stroke-width="0.5"></line>
                        <line x1="14.2354057" y1="4.4" x2="12.45392" y2="5.42857143" id="Stroke-46" stroke="#F1F1F1" stroke-width="0.5"></line>
                        <line x1="11.6" y1="1.76459429" x2="10.5714286" y2="3.54608" id="Stroke-47" stroke="#F1F1F1" stroke-width="0.5"></line>
                        <line x1="9.86363429" y1="1.04541714" x2="9.33083429" y2="3.03193143" id="Stroke-48" stroke="#F1F1F1" stroke-width="0.5"></line>
                        <line x1="8" y1="0.8" x2="8" y2="3.2" id="Stroke-49" stroke="#3FA8F4" stroke-width="0.5"></line>
                        <line x1="0.8" y1="0.8" x2="4.57142857" y2="4.57142857" id="Stroke-50" stroke="#3FA8F4" stroke-width="0.5"></line>
                        <line x1="0.8" y1="8" x2="3.2" y2="8" id="Stroke-51" stroke="#3FA8F4" stroke-width="0.5"></line>
                        <line x1="0.8" y1="15.2" x2="4.57142857" y2="11.4285714" id="Stroke-52" stroke="#3FA8F4" stroke-width="0.5"></line>
                        <line x1="8" y1="15.2" x2="8" y2="12.8" id="Stroke-53" stroke="#3FA8F4" stroke-width="0.5"></line>
                        <line x1="15.2" y1="15.2" x2="11.4285714" y2="11.4285714" id="Stroke-54" stroke="#3FA8F4" stroke-width="0.5"></line>
                        <line x1="15.2" y1="8" x2="12.8" y2="8" id="Stroke-55" stroke="#3FA8F4" stroke-width="0.5"></line>
                        <line x1="15.2" y1="0.8" x2="11.4285714" y2="4.57142857" id="Stroke-56" stroke="#3FA8F4" stroke-width="0.5"></line>
                        <path d="M0,16 L16,16 L16,0 L0,0 L0,16 Z M0.8,15.2 L15.2,15.2 L15.2,0.8 L0.8,0.8 L0.8,15.2 Z" id="Fill-57" fill="#F1F1F1"></path>
                        <path d="M8,0.8 C4.02354286,0.8 0.8,4.02354286 0.8,8 C0.8,11.9764571 4.02354286,15.2 8,15.2 C11.9764571,15.2 15.2,11.9764571 15.2,8 C15.2,4.02354286 11.9764571,0.8 8,0.8 M8,0.868571429 C11.9318857,0.868571429 15.1314286,4.06811429 15.1314286,8 C15.1314286,11.9318857 11.9318857,15.1314286 8,15.1314286 C4.06811429,15.1314286 0.868571429,11.9318857 0.868571429,8 C0.868571429,4.06811429 4.06811429,0.868571429 8,0.868571429" id="Fill-58" fill="#3FA8F4"></path>
                        <path d="M3.2,15.2 L12.8,15.2 L12.8,0.8 L3.2,0.8 L3.2,15.2 Z M3.264,15.1314286 L12.736,15.1314286 L12.736,0.868571429 L3.264,0.868571429 L3.264,15.1314286 Z" id="Fill-59" fill="#3FA8F4"></path>
                        <path d="M2,14 L14,14 L14,2 L2,2 L2,14 Z M2.06666667,13.9333333 L13.9333333,13.9333333 L13.9333333,2.06666667 L2.06666667,2.06666667 L2.06666667,13.9333333 Z" id="Fill-60" fill="#3FA8F4"></path>
                        <path d="M0.8,12.8 L15.2,12.8 L15.2,3.2 L0.8,3.2 L0.8,12.8 Z M0.868571429,12.736 L15.1314286,12.736 L15.1314286,3.264 L0.868571429,3.264 L0.868571429,12.736 Z" id="Fill-61" fill="#3FA8F4"></path>
                        <path d="M0,16 L16,16 L16,0 L0,0 L0,16 Z M0.0666666667,15.9333333 L15.9333333,15.9333333 L15.9333333,0.0666666667 L0.0666666667,0.0666666667 L0.0666666667,15.9333333 Z" id="Fill-62" fill="#3FA8F4"></path>
                    </g>
                </g>
                <rect id="矩形" x="0" y="0" width="16" height="16"></rect>
                <path d="M11.9282001,1.18880954 C12.5625218,0.648557029 13.5044012,0.581340861 14.2187251,1.08151589 C15.0669849,1.67547374 15.2731373,2.84462208 14.6791794,3.69288179 L14.6791794,3.69288179 L14,4.66226521 L14,9.39178605 L13.9710627,13.5105339 C13.9656144,14.2863419 13.371925,14.9211941 12.6148602,14.9931981 L12.4710997,15 L5,15 C3.1314366,15 1.60487355,13.5357224 1.50517886,11.6920352 L1.5,11.5 L1.5,2.5 C1.5,1.72030388 2.09488808,1.07955132 2.85553999,1.00686658 L3,1 L10.5,1 C10.9673075,1 11.4217847,1.09196304 11.8424582,1.26681552 Z M10.5,2 L3,2 C2.75454011,2 2.55039163,2.17687516 2.50805567,2.41012437 L2.5,2.5 L2.5,11.5 C2.5,12.8254834 3.53153594,13.9100387 4.83562431,13.9946823 L5,14 L12.4710997,14 C12.7153416,14 12.918903,13.8248112 12.9624788,13.5929038 L12.9710874,13.5035113 L13,9.38827476 L13,6.09026521 L9.80059297,10.6602253 C9.68723796,10.822113 9.54330026,10.959599 9.3773975,11.0652137 L9.24898663,11.1383322 L7.31588927,12.1162702 C7.13240403,12.2090939 6.92266534,12.2362868 6.72157517,12.193324 C6.23548911,12.0894717 5.92562734,11.6112323 6.02947955,11.1251462 L6.02947955,11.1251462 L6.46310054,9.09555902 C6.50506738,8.89913087 6.58605766,8.71313202 6.70126692,8.54859613 L6.70126692,8.54859613 L11.213751,2.10321398 C11.0459945,2.05336204 10.872332,2.0211201 10.6949216,2.00746942 L10.5,2 Z M13.6451487,1.90066793 C13.2492942,1.62348761 12.7036916,1.71969206 12.4265113,2.11554659 L12.4265113,2.11554659 L7.52041897,9.12217257 C7.48201588,9.17701786 7.45501912,9.23901748 7.44103017,9.30449353 L7.44103017,9.30449353 L7.0513635,11.1282641 L8.79757214,10.2460178 C8.84655734,10.2212366 8.89095673,10.1886456 8.92910797,10.1496856 L8.92910797,10.1496856 L8.98144092,10.0866489 L13.8600274,3.11930536 C14.1372077,2.72345082 14.0410032,2.17784826 13.6451487,1.90066793 Z M6.37606785,7.25 L6.46594348,7.25805567 C6.69919269,7.30039163 6.87606785,7.50454011 6.87606785,7.75 C6.87606785,8.02614237 6.65221022,8.25 6.37606785,8.25 L6.37606785,8.25 L4,8.25 L3.91012437,8.24194433 C3.67687516,8.19960837 3.5,7.99545989 3.5,7.75 C3.5,7.47385763 3.72385763,7.25 4,7.25 L4,7.25 L6.37606785,7.25 Z M8,4.25 L8.08987563,4.25805567 C8.32312484,4.30039163 8.5,4.50454011 8.5,4.75 C8.5,5.02614237 8.27614237,5.25 8,5.25 L8,5.25 L4,5.25 L3.91012437,5.24194433 C3.67687516,5.19960837 3.5,4.99545989 3.5,4.75 C3.5,4.47385763 3.72385763,4.25 4,4.25 L4,4.25 L8,4.25 Z" id="形状结合" fill="currentColor" fill-rule="nonzero"></path>
            </g>
        </g>
    </g>
</svg>
