<?xml version="1.0" encoding="UTF-8"?>
<svg width="16px" height="16px" viewBox="0 0 16 16" version="1.1" xmlns="http://www.w3.org/2000/svg" xmlns:xlink="http://www.w3.org/1999/xlink">
    <title>切片</title>
    <g id="定稿" stroke="none" stroke-width="1" fill="none" fill-rule="evenodd">
        <g id="设施服务icon" transform="translate(-74.000000, -370.000000)">
            <g id="1.Base基础/2.Icon图标/展开/16*16备份" transform="translate(74.000000, 370.000000)">
                <rect id="矩形" transform="translate(8.000000, 8.000000) scale(-1, 1) translate(-8.000000, -8.000000) " x="0" y="0" width="16" height="16"></rect>
                <path d="M7.25,8.29818238 L7.25,12.6890794 C7.25,13.1309072 6.89182779,13.4890794 6.44999999,13.4890794 C6.2832616,13.4890794 6.12069003,13.4369809 5.98500943,13.3400662 L2.9113815,11.1446177 C2.55185143,10.8878105 2.46857808,10.3881704 2.72538528,10.0286403 C2.776697,9.95680392 2.83954508,9.89395584 2.9113815,9.84264411 L5.98500943,7.64719559 C6.3445395,7.39038839 6.84417958,7.47366174 7.10098677,7.83319182 C7.19790149,7.96887242 7.25,8.13144399 7.25,8.29818238 Z" id="矩形备份-14" fill="#171717" transform="translate(4.625000, 10.493631) scale(-1, 1) translate(-4.625000, -10.493631) "></path>
                <path d="M2.5,2.5 C2.22385763,2.5 2,2.72385763 2,3 C2,3.24545989 2.17687516,3.44960837 2.41012437,3.49194433 L2.5,3.5 L13.5,3.5 C13.7761424,3.5 14,3.27614237 14,3 C14,2.75454011 13.8231248,2.55039163 13.5898756,2.50805567 L13.5,2.5 L2.5,2.5 Z M8.5,7.5 C8.22385763,7.5 8,7.72385763 8,8 C8,8.24545989 8.17687516,8.44960837 8.41012437,8.49194433 L8.5,8.5 L13.5,8.5 C13.7761424,8.5 14,8.27614237 14,8 C14,7.75454011 13.8231248,7.55039163 13.5898756,7.50805567 L13.5,7.5 L8.5,7.5 Z M8.5,12.5 C8.22385763,12.5 8,12.7238576 8,13 C8,13.2454599 8.17687516,13.4496084 8.41012437,13.4919443 L8.5,13.5 L13.5,13.5 C13.7761424,13.5 14,13.2761424 14,13 C14,12.7545401 13.8231248,12.5503916 13.5898756,12.5080557 L13.5,12.5 L8.5,12.5 Z" id="形状结合" fill="currentColor" fill-rule="nonzero"></path>
            </g>
        </g>
    </g>
</svg>
